<?xml version="1.0" encoding="UTF-8" standalone="no"?>
<!DOCTYPE svg PUBLIC "-//W3C//DTD SVG 1.0//EN" "http://www.w3.org/TR/2001/PR-SVG-20010719/DTD/svg10.dtd">
<svg width="98cm" height="48cm" viewBox="-1 -2 1942 945" xmlns="http://www.w3.org/2000/svg" xmlns:xlink="http://www.w3.org/1999/xlink">
  <g>
    <rect style="fill: #ffffff" x="0" y="20" width="1940" height="100"/>
    <rect style="fill: none; fill-opacity:0; stroke-width: 2; stroke: #4d4d4d" x="0" y="20" width="1940" height="100"/>
    <rect style="fill: #ffffff" x="0" y="0" width="296.6" height="20"/>
    <rect style="fill: none; fill-opacity:0; stroke-width: 2; stroke: #4d4d4d" x="0" y="0" width="296.6" height="20"/>
    <text font-size="12.7998" style="fill: #000000;text-anchor:start;font-family:monospace;font-style:normal;font-weight:normal" x="2" y="14">OpenZeppelin Solidity Framework v1.4.0</text>
  </g>
  <g>
    <rect style="fill: #ffedca" x="760" y="840" width="448.9" height="28"/>
    <rect style="fill: none; fill-opacity:0; stroke-width: 2; stroke: #4d4d4d" x="760" y="840" width="448.9" height="28"/>
    <text font-size="16" style="fill: #000000;text-anchor:middle;font-family:sans-serif;font-style:normal;font-weight:700" x="984.45" y="859">Whitelist</text>
    <rect style="fill: #ffedca" x="760" y="868" width="448.9" height="20"/>
    <rect style="fill: none; fill-opacity:0; stroke-width: 2; stroke: #4d4d4d" x="760" y="868" width="448.9" height="20"/>
    <text font-size="12.8" style="fill: #000000;text-anchor:start;font-family:monospace;font-style:normal;font-weight:normal" x="763" y="882">+allowedAddresses: address→bool</text>
    <rect style="fill: #ffedca" x="760" y="888" width="448.9" height="52"/>
    <rect style="fill: none; fill-opacity:0; stroke-width: 2; stroke: #4d4d4d" x="760" y="888" width="448.9" height="52"/>
    <text font-size="12.8" style="fill: #000000;text-anchor:start;font-family:monospace;font-style:normal;font-weight:normal" x="763" y="902">+&lt;&lt;onlyOwner&gt;&gt; addToWhitelist(_addresses:address[*])</text>
    <text font-size="12.8" style="fill: #000000;text-anchor:start;font-family:monospace;font-style:normal;font-weight:normal" x="763" y="918">+&lt;&lt;onlyOwner&gt;&gt; removeFromWhitelist(_addresses:address[*])</text>
    <text font-size="12.8" style="fill: #000000;text-anchor:start;font-family:monospace;font-style:normal;font-weight:normal" x="763" y="934">+&lt;&lt;view&gt;&gt; isWhitelisted(_address:address): bool</text>
  </g>
  <g>
    <rect style="fill: #d4eaff" x="1360" y="40" width="201.1" height="28"/>
    <rect style="fill: none; fill-opacity:0; stroke-width: 2; stroke: #4d4d4d" x="1360" y="40" width="201.1" height="28"/>
    <text font-size="16" style="fill: #000000;text-anchor:middle;font-family:sans-serif;font-style:normal;font-weight:700" x="1460.55" y="59">FinalizableCrowdsale</text>
    <rect style="fill: #d4eaff" x="1360" y="68" width="201.1" height="8"/>
    <rect style="fill: none; fill-opacity:0; stroke-width: 2; stroke: #4d4d4d" x="1360" y="68" width="201.1" height="8"/>
    <rect style="fill: #d4eaff" x="1360" y="76" width="201.1" height="8"/>
    <rect style="fill: none; fill-opacity:0; stroke-width: 2; stroke: #4d4d4d" x="1360" y="76" width="201.1" height="8"/>
  </g>
  <g>
    <rect style="fill: #d4eaff" x="520" y="40" width="88.4" height="28"/>
    <rect style="fill: none; fill-opacity:0; stroke-width: 2; stroke: #4d4d4d" x="520" y="40" width="88.4" height="28"/>
    <text font-size="16" style="fill: #000000;text-anchor:middle;font-family:sans-serif;font-style:normal;font-weight:700" x="564.2" y="59">Ownable</text>
    <rect style="fill: #d4eaff" x="520" y="68" width="88.4" height="8"/>
    <rect style="fill: none; fill-opacity:0; stroke-width: 2; stroke: #4d4d4d" x="520" y="68" width="88.4" height="8"/>
    <rect style="fill: #d4eaff" x="520" y="76" width="88.4" height="8"/>
    <rect style="fill: none; fill-opacity:0; stroke-width: 2; stroke: #4d4d4d" x="520" y="76" width="88.4" height="8"/>
  </g>
  <g>
    <rect style="fill: #d4eaff" x="1700" y="40" width="91.6" height="28"/>
    <rect style="fill: none; fill-opacity:0; stroke-width: 2; stroke: #4d4d4d" x="1700" y="40" width="91.6" height="28"/>
    <text font-size="16" style="fill: #000000;text-anchor:middle;font-family:sans-serif;font-style:normal;font-weight:700" x="1745.8" y="59">Pausable</text>
    <rect style="fill: #d4eaff" x="1700" y="68" width="91.6" height="8"/>
    <rect style="fill: none; fill-opacity:0; stroke-width: 2; stroke: #4d4d4d" x="1700" y="68" width="91.6" height="8"/>
    <rect style="fill: #d4eaff" x="1700" y="76" width="91.6" height="8"/>
    <rect style="fill: none; fill-opacity:0; stroke-width: 2; stroke: #4d4d4d" x="1700" y="76" width="91.6" height="8"/>
  </g>
  <g>
    <rect style="fill: #ffedca" x="1380" y="280" width="556.7" height="28"/>
    <rect style="fill: none; fill-opacity:0; stroke-width: 2; stroke: #4d4d4d" x="1380" y="280" width="556.7" height="28"/>
    <text font-size="16" style="fill: #000000;text-anchor:middle;font-family:sans-serif;font-style:normal;font-weight:700" x="1658.35" y="299">ODEMCrowdsale</text>
    <rect style="fill: #ffedca" x="1380" y="308" width="556.7" height="308"/>
    <rect style="fill: none; fill-opacity:0; stroke-width: 2; stroke: #4d4d4d" x="1380" y="308" width="556.7" height="308"/>
    <text font-size="12.8" style="fill: #000000;text-anchor:start;font-family:monospace;font-style:normal;font-weight:normal" x="1383" y="322">+BOUNTY_REWARD_SHARE: uint = 43666667e18</text>
    <text font-size="12.8" style="fill: #000000;text-anchor:start;font-family:monospace;font-style:normal;font-weight:normal" x="1383" y="338">+VESTED_TEAM_ADVISORS_SHARE: uint = 38763636e18</text>
    <text font-size="12.8" style="fill: #000000;text-anchor:start;font-family:monospace;font-style:normal;font-weight:normal" x="1383" y="354">+NON_VESTED_TEAM_ADVISORS_SHARE: uint = 5039200e18</text>
    <text font-size="12.8" style="fill: #000000;text-anchor:start;font-family:monospace;font-style:normal;font-weight:normal" x="1383" y="370">+COMPANY_SHARE: uint = 71300194e18</text>
    <text font-size="12.8" style="fill: #000000;text-anchor:start;font-family:monospace;font-style:normal;font-weight:normal" x="1383" y="386"> </text>
    <text font-size="12.8" style="fill: #000000;text-anchor:start;font-family:monospace;font-style:normal;font-weight:normal" x="1383" y="402">+PRE_CROWDSALE_CAP: uint = 58200000e18</text>
    <text font-size="12.8" style="fill: #000000;text-anchor:start;font-family:monospace;font-style:normal;font-weight:normal" x="1383" y="418">+PUBLIC_CROWDSALE_CAP: uint = 180000000e18</text>
    <text font-size="12.8" style="fill: #000000;text-anchor:start;font-family:monospace;font-style:normal;font-weight:normal" x="1383" y="434">+TOTAL_TOKENS_FOR_CROWDSALE: uint = 238200000e18</text>
    <text font-size="12.8" style="fill: #000000;text-anchor:start;font-family:monospace;font-style:normal;font-weight:normal" x="1383" y="450">+TOTAL_TOKENS_SUPPLY: uint = 396969697e18</text>
    <text font-size="12.8" style="fill: #000000;text-anchor:start;font-family:monospace;font-style:normal;font-weight:normal" x="1383" y="466">+PERSONAL_FIRST_HOUR_CAP: uint = 2000000e18</text>
    <text font-size="12.8" style="fill: #000000;text-anchor:start;font-family:monospace;font-style:normal;font-weight:normal" x="1383" y="482"> </text>
    <text font-size="12.8" style="fill: #000000;text-anchor:start;font-family:monospace;font-style:normal;font-weight:normal" x="1383" y="498">+whitelist: Whitelist</text>
    <text font-size="12.8" style="fill: #000000;text-anchor:start;font-family:monospace;font-style:normal;font-weight:normal" x="1383" y="514">+rewardWallet: address</text>
    <text font-size="12.8" style="fill: #000000;text-anchor:start;font-family:monospace;font-style:normal;font-weight:normal" x="1383" y="530">+teamAndAdvisorsAllocation: address</text>
    <text font-size="12.8" style="fill: #000000;text-anchor:start;font-family:monospace;font-style:normal;font-weight:normal" x="1383" y="546"> </text>
    <text font-size="12.8" style="fill: #000000;text-anchor:start;font-family:monospace;font-style:normal;font-weight:normal" x="1383" y="562">+trackBuyersPurchases: address→uint</text>
    <text font-size="12.8" style="fill: #000000;text-anchor:start;font-family:monospace;font-style:normal;font-weight:normal" x="1383" y="578">+oneHourAfterStartTime: uint</text>
    <text font-size="12.8" style="fill: #000000;text-anchor:start;font-family:monospace;font-style:normal;font-weight:normal" x="1383" y="594">+remainderPurchase: address</text>
    <text font-size="12.8" style="fill: #000000;text-anchor:start;font-family:monospace;font-style:normal;font-weight:normal" x="1383" y="610">+remainderAmount: uint</text>
    <rect style="fill: #ffedca" x="1380" y="616" width="556.7" height="324"/>
    <rect style="fill: none; fill-opacity:0; stroke-width: 2; stroke: #4d4d4d" x="1380" y="616" width="556.7" height="324"/>
    <text font-size="12.8" style="fill: #000000;text-anchor:start;font-family:monospace;font-style:normal;font-weight:normal" x="1383" y="630">+&lt;&lt;constructor&gt;&gt; ODEMCrowdsale(_startTime:uint,</text>
    <text font-size="12.8" style="fill: #000000;text-anchor:start;font-family:monospace;font-style:normal;font-weight:normal" x="1383" y="646">                               _endTime:uint,</text>
    <text font-size="12.8" style="fill: #000000;text-anchor:start;font-family:monospace;font-style:normal;font-weight:normal" x="1383" y="662">                               _whitelist:address,</text>
    <text font-size="12.8" style="fill: #000000;text-anchor:start;font-family:monospace;font-style:normal;font-weight:normal" x="1383" y="678">                               _rate:uint,</text>
    <text font-size="12.8" style="fill: #000000;text-anchor:start;font-family:monospace;font-style:normal;font-weight:normal" x="1383" y="694">                               _wallet:address,</text>
    <text font-size="12.8" style="fill: #000000;text-anchor:start;font-family:monospace;font-style:normal;font-weight:normal" x="1383" y="710">                               _rewardWallet:address)</text>
    <text font-size="12.8" style="fill: #000000;text-anchor:start;font-family:monospace;font-style:normal;font-weight:normal" x="1383" y="726">+&lt;&lt;onlyOwner&gt;&gt; setRate(newRate:uint)</text>
    <text font-size="12.8" style="fill: #000000;text-anchor:start;font-family:monospace;font-style:normal;font-weight:normal" x="1383" y="742">+&lt;&lt;onlyOwner&gt;&gt; mintTokenForPreCrowdsale(investorsAddress:address,</text>
    <text font-size="12.8" style="fill: #000000;text-anchor:start;font-family:monospace;font-style:normal;font-weight:normal" x="1383" y="758">                                        tokensPurchased:uint)</text>
    <text font-size="12.8" style="fill: #000000;text-anchor:start;font-family:monospace;font-style:normal;font-weight:normal" x="1383" y="774">+&lt;&lt;onlyOwner&gt;&gt; setTeamWalletAddress(_teamAndAdvisorsAllocation:address)</text>
    <text font-size="12.8" style="fill: #000000;text-anchor:start;font-family:monospace;font-style:normal;font-weight:normal" x="1383" y="790">+&lt;&lt;whenNotPaused, whitelisted(beneficiary),</text>
    <text font-size="12.8" style="fill: #000000;text-anchor:start;font-family:monospace;font-style:normal;font-weight:normal" x="1383" y="806">                               payable&gt;&gt; buyTokens(beneficiary:address)</text>
    <text font-size="12.8" style="fill: #000000;text-anchor:start;font-family:monospace;font-style:normal;font-weight:normal" x="1383" y="822">+&lt;&lt;view&gt;&gt; hasEnded(): bool</text>
    <text font-size="12.8" style="fill: #000000;text-anchor:start;font-family:monospace;font-style:normal;font-weight:normal" x="1383" y="838">-createTokenContract(): MintableToken</text>
    <text font-size="12.8" style="fill: #000000;text-anchor:start;font-family:monospace;font-style:normal;font-weight:normal" x="1383" y="854">-finalization()</text>
    <text font-size="12.8" style="fill: #000000;text-anchor:start;font-family:monospace;font-style:normal;font-weight:normal" x="1383" y="870"> &lt;&lt;event&gt;&gt; PrivateInvestorTokenPurchase(investor:address indexed,</text>
    <text font-size="12.8" style="fill: #000000;text-anchor:start;font-family:monospace;font-style:normal;font-weight:normal" x="1383" y="886">                                        tokensPurchased:uint)</text>
    <text font-size="12.8" style="fill: #000000;text-anchor:start;font-family:monospace;font-style:normal;font-weight:normal" x="1383" y="902"> &lt;&lt;event&gt;&gt; TokenRateChanged(previousRate:uint,</text>
    <text font-size="12.8" style="fill: #000000;text-anchor:start;font-family:monospace;font-style:normal;font-weight:normal" x="1383" y="918">                            newRate:uint)</text>
    <text font-size="12.8" style="fill: #000000;text-anchor:start;font-family:monospace;font-style:normal;font-weight:normal" x="1383" y="934"> &lt;&lt;modifier&gt;&gt; whitelisted(beneficiary:address)</text>
  </g>
  <g>
    <rect style="fill: #ffedca" x="880" y="280" width="225.6" height="28"/>
    <rect style="fill: none; fill-opacity:0; stroke-width: 2; stroke: #4d4d4d" x="880" y="280" width="225.6" height="28"/>
    <text font-size="16" style="fill: #000000;text-anchor:middle;font-family:sans-serif;font-style:normal;font-weight:700" x="992.8" y="299">ODEMToken</text>
    <rect style="fill: #ffedca" x="880" y="308" width="225.6" height="52"/>
    <rect style="fill: none; fill-opacity:0; stroke-width: 2; stroke: #4d4d4d" x="880" y="308" width="225.6" height="52"/>
    <text font-size="12.8" style="fill: #000000;text-anchor:start;font-family:monospace;font-style:normal;font-weight:normal" x="883" y="322">+name: string = "ODEM Token"</text>
    <text font-size="12.8" style="fill: #000000;text-anchor:start;font-family:monospace;font-style:normal;font-weight:normal" x="883" y="338">+symbol: string = "ODEM"</text>
    <text font-size="12.8" style="fill: #000000;text-anchor:start;font-family:monospace;font-style:normal;font-weight:normal" x="883" y="354">+decimals: uint8 = 18</text>
    <rect style="fill: #ffedca" x="880" y="360" width="225.6" height="8"/>
    <rect style="fill: none; fill-opacity:0; stroke-width: 2; stroke: #4d4d4d" x="880" y="360" width="225.6" height="8"/>
  </g>
  <g>
    <rect style="fill: #d4eaff" x="760" y="40" width="143.85" height="28"/>
    <rect style="fill: none; fill-opacity:0; stroke-width: 2; stroke: #4d4d4d" x="760" y="40" width="143.85" height="28"/>
    <text font-size="16" style="fill: #000000;text-anchor:middle;font-family:sans-serif;font-style:normal;font-weight:700" x="831.925" y="59">PausableToken</text>
    <rect style="fill: #d4eaff" x="760" y="68" width="143.85" height="8"/>
    <rect style="fill: none; fill-opacity:0; stroke-width: 2; stroke: #4d4d4d" x="760" y="68" width="143.85" height="8"/>
    <rect style="fill: #d4eaff" x="760" y="76" width="143.85" height="8"/>
    <rect style="fill: none; fill-opacity:0; stroke-width: 2; stroke: #4d4d4d" x="760" y="76" width="143.85" height="8"/>
  </g>
  <g>
    <rect style="fill: #d4eaff" x="1060" y="40" width="141.3" height="28"/>
    <rect style="fill: none; fill-opacity:0; stroke-width: 2; stroke: #4d4d4d" x="1060" y="40" width="141.3" height="28"/>
    <text font-size="16" style="fill: #000000;text-anchor:middle;font-family:sans-serif;font-style:normal;font-weight:700" x="1130.65" y="59">MintableToken</text>
    <rect style="fill: #d4eaff" x="1060" y="68" width="141.3" height="8"/>
    <rect style="fill: none; fill-opacity:0; stroke-width: 2; stroke: #4d4d4d" x="1060" y="68" width="141.3" height="8"/>
    <rect style="fill: #d4eaff" x="1060" y="76" width="141.3" height="8"/>
    <rect style="fill: none; fill-opacity:0; stroke-width: 2; stroke: #4d4d4d" x="1060" y="76" width="141.3" height="8"/>
  </g>
  <g>
    <rect style="fill: #ffedca" x="80" y="280" width="579.8" height="28"/>
    <rect style="fill: none; fill-opacity:0; stroke-width: 2; stroke: #4d4d4d" x="80" y="280" width="579.8" height="28"/>
    <text font-size="16" style="fill: #000000;text-anchor:middle;font-family:sans-serif;font-style:normal;font-weight:700" x="369.9" y="299">TeamAndAdvisorsAllocation</text>
    <rect style="fill: #ffedca" x="80" y="308" width="579.8" height="164"/>
    <rect style="fill: none; fill-opacity:0; stroke-width: 2; stroke: #4d4d4d" x="80" y="308" width="579.8" height="164"/>
    <text font-size="12.8" style="fill: #000000;text-anchor:start;font-family:monospace;font-style:normal;font-weight:normal" x="83" y="322">-totalTeamAndAdvisorsAllocation: uint = 38763636e18</text>
    <text font-size="12.8" style="fill: #000000;text-anchor:start;font-family:monospace;font-style:normal;font-weight:normal" x="83" y="338"> </text>
    <text font-size="12.8" style="fill: #000000;text-anchor:start;font-family:monospace;font-style:normal;font-weight:normal" x="83" y="354">+odem: ODEMToken</text>
    <text font-size="12.8" style="fill: #000000;text-anchor:start;font-family:monospace;font-style:normal;font-weight:normal" x="83" y="370"> </text>
    <text font-size="12.8" style="fill: #000000;text-anchor:start;font-family:monospace;font-style:normal;font-weight:normal" x="83" y="386">+teamAndAdvisorsAllocations: address→uint</text>
    <text font-size="12.8" style="fill: #000000;text-anchor:start;font-family:monospace;font-style:normal;font-weight:normal" x="83" y="402">+allocatedTokens: uint</text>
    <text font-size="12.8" style="fill: #000000;text-anchor:start;font-family:monospace;font-style:normal;font-weight:normal" x="83" y="418">+tokensCreated: uint</text>
    <text font-size="12.8" style="fill: #000000;text-anchor:start;font-family:monospace;font-style:normal;font-weight:normal" x="83" y="434"> </text>
    <text font-size="12.8" style="fill: #000000;text-anchor:start;font-family:monospace;font-style:normal;font-weight:normal" x="83" y="450">+unlockedAt: uint</text>
    <text font-size="12.8" style="fill: #000000;text-anchor:start;font-family:monospace;font-style:normal;font-weight:normal" x="83" y="466">+canSelfDestruct: uint</text>
    <rect style="fill: #ffedca" x="80" y="472" width="579.8" height="84"/>
    <rect style="fill: none; fill-opacity:0; stroke-width: 2; stroke: #4d4d4d" x="80" y="472" width="579.8" height="84"/>
    <text font-size="12.8" style="fill: #000000;text-anchor:start;font-family:monospace;font-style:normal;font-weight:normal" x="83" y="486">+&lt;&lt;constructor&gt;&gt; TeamAndAdvisorsAllocation(token:address)</text>
    <text font-size="12.8" style="fill: #000000;text-anchor:start;font-family:monospace;font-style:normal;font-weight:normal" x="83" y="502">+&lt;&lt;onlyOwner&gt;&gt; addTeamAndAdvisorsAllocation(teamOrAdvisorsAddress:address,</text>
    <text font-size="12.8" style="fill: #000000;text-anchor:start;font-family:monospace;font-style:normal;font-weight:normal" x="83" y="518">                                            allocationValue:uint): bool</text>
    <text font-size="12.8" style="fill: #000000;text-anchor:start;font-family:monospace;font-style:normal;font-weight:normal" x="83" y="534">+&lt;&lt;onlyOwner&gt;&gt; kill()</text>
    <text font-size="12.8" style="fill: #000000;text-anchor:start;font-family:monospace;font-style:normal;font-weight:normal" x="83" y="550">+unlock()</text>
  </g>
  <g>
    <rect style="fill: #e5e5e5" x="160" y="40" width="95.85" height="44"/>
    <rect style="fill: none; fill-opacity:0; stroke-width: 2; stroke: #000000" x="160" y="40" width="95.85" height="44"/>
    <text font-size="12.8" style="fill: #000000;text-anchor:middle;font-family:monospace;font-style:normal;font-weight:normal" x="207.925" y="56">&lt;&lt;library&gt;&gt;</text>
    <text font-size="16" style="fill: #000000;text-anchor:middle;font-family:sans-serif;font-style:normal;font-weight:700" x="207.925" y="75">SafeMath</text>
    <rect style="fill: #e5e5e5" x="160" y="84" width="95.85" height="8"/>
    <rect style="fill: none; fill-opacity:0; stroke-width: 2; stroke: #000000" x="160" y="84" width="95.85" height="8"/>
  </g>
  <g>
    <polyline style="fill: none; fill-opacity:0; stroke-width: 2; stroke: #000000" points="564.2,102.236 564.2,200 740,200 740,760 984.45,760 984.45,840 "/>
    <polygon style="fill: #ffffff" points="572.2,102.236 564.2,86.2361 556.2,102.236 "/>
    <polygon style="fill: none; fill-opacity:0; stroke-width: 2; stroke: #000000" points="572.2,102.236 564.2,86.2361 556.2,102.236 "/>
  </g>
  <g>
    <polyline style="fill: none; fill-opacity:0; stroke-width: 2; stroke: #000000" points="831.925,102.236 831.925,200 992.8,200 992.8,280 "/>
    <polygon style="fill: #ffffff" points="839.925,102.236 831.925,86.2361 823.925,102.236 "/>
    <polygon style="fill: none; fill-opacity:0; stroke-width: 2; stroke: #000000" points="839.925,102.236 831.925,86.2361 823.925,102.236 "/>
  </g>
  <g>
    <polyline style="fill: none; fill-opacity:0; stroke-width: 2; stroke: #000000" points="564.2,102.236 564.2,200 369.9,200 369.9,280 "/>
    <polygon style="fill: #ffffff" points="572.2,102.236 564.2,86.2361 556.2,102.236 "/>
    <polygon style="fill: none; fill-opacity:0; stroke-width: 2; stroke: #000000" points="572.2,102.236 564.2,86.2361 556.2,102.236 "/>
  </g>
  <g>
    <polyline style="fill: none; fill-opacity:0; stroke-width: 2; stroke: #000000" points="1130.65,102.236 1130.65,200 992.8,200 992.8,280 "/>
    <polygon style="fill: #ffffff" points="1138.65,102.236 1130.65,86.2361 1122.65,102.236 "/>
    <polygon style="fill: none; fill-opacity:0; stroke-width: 2; stroke: #000000" points="1138.65,102.236 1130.65,86.2361 1122.65,102.236 "/>
  </g>
  <g>
    <polyline style="fill: none; fill-opacity:0; stroke-width: 2; stroke: #000000" points="1460.55,102.236 1460.55,200 1658.35,200 1658.35,280 "/>
    <polygon style="fill: #ffffff" points="1468.55,102.236 1460.55,86.2361 1452.55,102.236 "/>
    <polygon style="fill: none; fill-opacity:0; stroke-width: 2; stroke: #000000" points="1468.55,102.236 1460.55,86.2361 1452.55,102.236 "/>
  </g>
  <g>
    <polyline style="fill: none; fill-opacity:0; stroke-width: 2; stroke: #000000" points="1745.8,102.236 1745.8,200 1658.35,200 1658.35,280 "/>
    <polygon style="fill: #ffffff" points="1753.8,102.236 1745.8,86.2361 1737.8,102.236 "/>
    <polygon style="fill: none; fill-opacity:0; stroke-width: 2; stroke: #000000" points="1753.8,102.236 1745.8,86.2361 1737.8,102.236 "/>
  </g>
  <g>
    <line style="fill: none; fill-opacity:0; stroke-width: 2; stroke: #1e90ff" x1="1116.43" y1="307.104" x2="1380" y2="626"/>
    <polygon style="fill: #1e90ff" points="1120.28,303.918 1106.24,294.771 1112.58,310.289 "/>
    <polygon style="fill: none; fill-opacity:0; stroke-width: 2; stroke: #1e90ff" points="1120.28,303.918 1106.24,294.771 1112.58,310.289 "/>
    <text font-size="12.7998" style="fill: #000000;text-anchor:middle;font-family:sans-serif;font-style:normal;font-weight:normal" x="1242.8" y="470">&lt;&lt;create&gt;&gt;</text>
  </g>
  <g>
    <line style="fill: none; fill-opacity:0; stroke-width: 2; stroke: #1e90ff" x1="1225.9" y1="930" x2="1380" y2="930"/>
    <polygon style="fill: #1e90ff" points="1225.9,925 1209.9,930 1225.9,935 "/>
    <polygon style="fill: none; fill-opacity:0; stroke-width: 2; stroke: #1e90ff" points="1225.9,925 1209.9,930 1225.9,935 "/>
    <text font-size="12.7998" style="fill: #000000;text-anchor:middle;font-family:sans-serif;font-style:normal;font-weight:normal" x="1294.45" y="940">checks</text>
  </g>
  <g>
    <polyline style="fill: none; fill-opacity:0; stroke-width: 2; stroke-dasharray: 8; stroke: #1e90ff" points="80,294 40,294 40,62 153.295,62 "/>
    <polyline style="fill: none; fill-opacity:0; stroke-width: 2; stroke: #1e90ff" points="140.647,67 156.647,62 140.647,57 "/>
    <text font-size="12.7998" style="fill: #000000;text-anchor:start;font-family:monospace;font-style:normal;font-weight:normal" x="42" y="174">uses</text>
  </g>
  <g>
    <polygon style="fill: #ffffff" points="80,860 340.1,860 352.1,872 352.1,926 80,926 "/>
    <polygon style="fill: none; fill-opacity:0; stroke-width: 2; stroke: #4d4d4d" points="80,860 340.1,860 352.1,872 352.1,926 80,926 "/>
    <polyline style="fill: none; fill-opacity:0; stroke-width: 1; stroke: #4d4d4d" points="340.1,860 340.1,872 352.1,872 "/>
    <text font-size="12.8" style="fill: #4d4d4d;text-anchor:start;font-family:monospace;font-style:normal;font-weight:normal" x="87" y="884.9">
      <tspan x="87" y="884.9">Only direct inheritance is shown.</tspan>
      <tspan x="87" y="900.9">Inheritance within OpenZeppelin's</tspan>
      <tspan x="87" y="916.9">Solidity framework is not shown. </tspan>
    </text>
  </g>
  <g>
    <line style="fill: none; fill-opacity:0; stroke-width: 2; stroke: #1e90ff" x1="863.524" y1="298.19" x2="659.8" y2="350"/>
    <polygon style="fill: #1e90ff" points="864.757,303.036 879.031,294.246 862.292,293.344 "/>
    <polygon style="fill: none; fill-opacity:0; stroke-width: 2; stroke: #1e90ff" points="864.757,303.036 879.031,294.246 862.292,293.344 "/>
  </g>
  <g>
    <line style="fill: none; fill-opacity:0; stroke-width: 2; stroke: #1e90ff" x1="1117.97" y1="282.334" x2="1360" y2="54"/>
    <polygon style="fill: #1e90ff" points="1114.53,278.697 1106.33,293.314 1121.4,285.971 "/>
    <polygon style="fill: none; fill-opacity:0; stroke-width: 2; stroke: #1e90ff" points="1114.53,278.697 1106.33,293.314 1121.4,285.971 "/>
  </g>
</svg>
